<svg class="svg-icon" viewBox="0 0 1024 1024" version="1.1" xmlns="http://www.w3.org/2000/svg"><path d="M512.853333 938.666667V85.333333c117.1968 0 217.309867 41.5232 300.3904 124.586667C896.853333 293.546667 938.666667 394.24 938.666667 512c0 117.76-41.813333 218.1632-125.44 301.226667-83.063467 83.626667-183.176533 125.44-300.373334 125.44z"  /><path d="M512.853333 955.733333H512c-121.890133 0-227.584-43.8784-314.146133-130.440533C111.872 739.293867 68.266667 633.9072 68.266667 512c0-121.873067 43.588267-227.549867 129.536-314.112C284.450133 111.854933 390.126933 68.266667 512 68.266667h1.041067c121.736533 0.256 226.5088 43.844267 312.251733 129.5872C911.854933 284.416 955.733333 390.109867 955.733333 512c0 121.924267-43.895467 227.328-130.474666 313.326933C739.328 911.837867 634.197333 955.733333 512.853333 955.733333z m-17.066666-853.026133c-106.1376 3.857067-197.956267 43.946667-273.834667 119.313067C142.6432 301.8752 102.4 399.4624 102.4 512c0 112.520533 40.226133 209.800533 119.586133 289.160533 76.066133 76.049067 168.106667 116.411733 273.800534 120.149334V102.7072z m34.133333 0.017067v818.568533c104.738133-3.925333 195.908267-44.288 271.223467-120.081067C881.1008 721.7664 921.6 624.4864 921.6 512c0-112.503467-40.516267-210.090667-120.439467-290.013867-75.298133-75.298133-166.485333-115.370667-271.240533-119.261866z"  /></svg>